<?xml version="1.0" encoding="utf-8"?>
<!-- Generator: Adobe Illustrator 25.4.1, SVG Export Plug-In . SVG Version: 6.00 Build 0)  -->
<svg version="1.1" id="Layer_1" xmlns="http://www.w3.org/2000/svg" xmlns:xlink="http://www.w3.org/1999/xlink" x="0px" y="0px"
	 viewBox="0 0 1080 1920" style="enable-background:new 0 0 1080 1920;" xml:space="preserve">
<style type="text/css">
	.st0{fill:#E42847;}
</style>
<g>
	<rect x="532.5" class="st0" width="15" height="1920"/>
</g>
<g>
	<rect x="368.9" y="94" class="st0" width="342.2" height="2"/>
</g>
<g>
	<rect x="368.9" y="224" class="st0" width="342.2" height="2"/>
</g>
<g>
	<rect x="368.9" y="354.1" class="st0" width="342.2" height="2"/>
</g>
<g>
	<rect x="368.9" y="1784.5" class="st0" width="342.2" height="2"/>
</g>
<g>
	<rect x="368.9" y="1654.5" class="st0" width="342.2" height="2"/>
</g>
<g>
	<rect x="368.9" y="1264.3" class="st0" width="342.2" height="2"/>
</g>
<g>
	<rect x="368.9" y="874.2" class="st0" width="342.2" height="2"/>
</g>
<g>
	<rect x="368.9" y="1004.3" class="st0" width="342.2" height="2"/>
</g>
<g>
	<rect x="368.9" y="614.1" class="st0" width="342.2" height="2"/>
</g>
<g>
	<rect x="368.9" y="1524.4" class="st0" width="342.2" height="2"/>
</g>
<g>
	<rect x="368.9" y="1134.3" class="st0" width="342.2" height="2"/>
</g>
<g>
	<rect x="368.9" y="744.2" class="st0" width="342.2" height="2"/>
</g>
<g>
	<rect x="368.9" y="1394.4" class="st0" width="342.2" height="2"/>
</g>
<g>
	<rect x="368.9" y="484.1" class="st0" width="342.2" height="2"/>
</g>
</svg>
