<?xml version="1.0" standalone="no"?>
<!DOCTYPE svg PUBLIC "-//W3C//DTD SVG 20010904//EN"
 "http://www.w3.org/TR/2001/REC-SVG-20010904/DTD/svg10.dtd">
<svg version="1.0" xmlns="http://www.w3.org/2000/svg"
 width="260.000000pt" height="260.000000pt" viewBox="0 0 260.000000 260.000000"
 preserveAspectRatio="xMidYMid meet">
<metadata>
Created by potrace 1.11, written by Peter Selinger 2001-2013
</metadata>
<g transform="translate(0.000000,260.000000) scale(0.100000,-0.100000)"
fill="#000000" stroke="none">
<path d="M0 1300 l0 -1300 1300 0 1300 0 0 1300 0 1300 -1300 0 -1300 0 0
-1300z m1667 550 c20 -16 41 -20 96 -20 50 0 75 -5 88 -16 15 -13 46 -15 201
-14 102 0 192 -2 201 -6 29 -11 20 -54 -22 -99 -29 -32 -38 -48 -34 -67 3 -18
-4 -35 -27 -62 -32 -35 -33 -36 -108 -36 -72 0 -78 -2 -109 -32 -30 -29 -33
-37 -33 -93 0 -59 1 -62 45 -105 36 -35 45 -51 45 -78 0 -25 9 -45 35 -73 30
-34 35 -46 35 -90 0 -44 5 -56 40 -98 39 -46 40 -49 40 -122 l0 -74 -71 -77
-71 -78 -122 0 -123 0 -91 95 -92 95 -49 0 c-45 0 -53 3 -78 35 -28 35 -28 35
-109 35 -79 0 -81 -1 -114 -35 -31 -32 -40 -36 -80 -33 -43 3 -45 5 -48 36 -2
21 4 41 17 58 13 17 21 41 21 66 0 25 8 50 20 66 l20 25 -22 24 c-32 34 -81
31 -108 -7 -18 -25 -28 -30 -65 -30 -37 0 -47 5 -79 40 -21 24 -33 46 -30 55
3 8 -7 32 -25 54 -50 63 -35 141 26 141 33 0 27 34 -7 38 -46 7 -50 17 -50
140 0 105 2 118 22 139 16 17 32 23 64 23 39 0 47 4 90 55 48 55 48 55 105 55
47 0 63 5 87 25 34 29 54 31 72 10 9 -11 32 -15 81 -15 66 0 69 1 96 35 28 35
28 35 111 35 69 0 88 -4 109 -20z m-1100 -307 c9 -28 45 -63 63 -63 23 0 40
-20 40 -48 0 -33 -18 -62 -39 -62 -10 0 -26 -9 -36 -20 -42 -46 -100 -13 -107
61 -3 30 -7 35 -36 39 -38 6 -44 24 -10 28 58 7 70 14 84 47 16 38 31 45 41
18z m201 -46 c3 -14 -1 -18 -20 -15 -12 2 -24 11 -26 21 -3 14 1 18 20 15 12
-2 24 -11 26 -21z m6 -229 c18 -25 22 -78 6 -78 -6 0 -18 4 -28 9 -9 5 -25 12
-35 15 -26 8 -32 34 -12 56 24 26 50 25 69 -2z m-87 -60 c46 -45 43 -71 -18
-140 l-51 -58 -63 0 c-43 0 -66 -5 -75 -15 -7 -8 -21 -15 -31 -15 -16 0 -19
-8 -19 -53 0 -48 -3 -56 -38 -90 -21 -21 -41 -34 -45 -31 -13 13 -7 46 13 71
33 42 26 81 -22 130 l-41 42 26 10 c23 9 27 17 27 48 0 50 32 83 80 83 26 0
43 7 60 25 21 22 32 25 94 25 65 0 72 -2 103 -32z"/>
<path d="M1592 1118 c-18 -18 -15 -52 8 -81 11 -14 20 -29 19 -34 -4 -16 13
-43 27 -43 23 0 19 132 -4 153 -22 20 -34 21 -50 5z"/>
</g>
</svg>
